<svg id="Layer_1" data-name="Layer 1" xmlns="http://www.w3.org/2000/svg" viewBox="0 0 795 900"><defs><style>.cls-1{fill:#148c9b;}.cls-2{fill:#107b84;}.cls-3{fill:#328f99;}.cls-4{fill:#f76e11;}.cls-5{font-size:24px;font-family:MyriadPro-Regular, Myriad Pro;}</style></defs><title>off_lamp_colors</title><rect class="cls-1" x="594.18" y="498.23" width="20" height="403.2" transform="translate(385.38 -198.46) rotate(27.12)"/><rect class="cls-1" x="616.09" y="6.03" width="20" height="524.29" transform="translate(-49.27 179.89) rotate(-15.74)"/><ellipse class="cls-2" cx="554.5" cy="55" rx="61" ry="51"/><ellipse class="cls-2" cx="554.5" cy="825" rx="61" ry="51"/><path class="cls-1" d="M555,384.5c-129.51,0-234.5-16-234.5-42.5,0-61.86,73-301,234.5-301S789.5,280.14,789.5,342C789.5,354.5,684.51,384.5,555,384.5Z"/><path class="cls-2" d="M784.38,303c.17.78.33,1.55.48,2.32C784.71,304.53,784.55,303.75,784.38,303Z"/><path class="cls-2" d="M785.36,307.73c.11.54.2,1.06.3,1.59C785.56,308.79,785.47,308.27,785.36,307.73Z"/><path class="cls-2" d="M555.5,206.5c106.7,0,196.74,34,225.16,80.62q-1.28-5-2.73-10.17C746.81,232.52,659,200.5,555.5,200.5c-105.44,0-194.62,33.24-224.12,79q-1.51,5.48-2.8,10.69C354.85,242,446.49,206.5,555.5,206.5Z"/><path class="cls-2" d="M786.77,315.41c.08.48.16.95.24,1.43C786.93,316.36,786.86,315.89,786.77,315.41Z"/><path class="cls-2" d="M783.19,297.56c.16.71.33,1.44.49,2.14C783.52,299,783.35,298.28,783.19,297.56Z"/><path class="cls-2" d="M781.11,288.92c.19.76.39,1.52.57,2.27C781.5,290.44,781.3,289.68,781.11,288.92Z"/><path class="cls-2" d="M782.18,293.25c.18.75.36,1.5.54,2.24C782.54,294.76,782.36,294,782.18,293.25Z"/><path class="cls-2" d="M786.1,311.63c.09.51.18,1,.27,1.52C786.28,312.64,786.2,312.14,786.1,311.63Z"/><path class="cls-2" d="M789,332.3c0,.32.05.63.08.95C789.08,332.93,789,332.62,789,332.3Z"/><path class="cls-2" d="M789.25,335.23q0,.44.05.87Q789.28,335.67,789.25,335.23Z"/><path class="cls-2" d="M789.42,338.47v0c0-.14,0-.29,0-.43C789.41,338.16,789.41,338.31,789.42,338.47Z"/><path class="cls-2" d="M787.37,319.06c.07.45.13.89.2,1.33C787.51,319.95,787.44,319.51,787.37,319.06Z"/><path class="cls-2" d="M787.9,322.58c.06.42.11.82.17,1.23C788,323.4,788,323,787.9,322.58Z"/><path class="cls-2" d="M788.34,326c0,.38.09.76.14,1.13C788.44,326.72,788.39,326.35,788.34,326Z"/><path class="cls-2" d="M788.72,329.2c0,.35.07.69.11,1C788.79,329.9,788.76,329.56,788.72,329.2Z"/><path class="cls-1" d="M745.85,898C709.73,839.71,638,800,555.5,800s-154.23,39.71-190.35,98Z"/><ellipse class="cls-2" cx="555" cy="342" rx="234.5" ry="112"/><path class="cls-3" d="M447.47,242.45c-9.3,23.53-14.58,47.82-14.58,68.81,0,67.71,54.89,87.24,122.61,87.24S678.11,379,678.11,311.26c0-20.91-5.24-45.09-14.47-68.54C631.16,234.6,594.21,230,555,230,516.24,230,479.68,234.49,447.47,242.45Z"/><circle class="cls-2" cx="696" cy="519.5" r="13"/><rect class="cls-4" x="205" y="129.68" width="228" height="2.67"/><text class="cls-5" transform="translate(119.23 138.13)">148c9b</text><rect class="cls-4" x="124" y="344.68" width="421" height="2.67"/><text class="cls-5" transform="translate(44.31 353.13)">328f99</text><rect class="cls-4" x="206" y="288.68" width="126" height="2.67"/><text class="cls-5" transform="translate(120.23 297.13)">148c9b</text><rect class="cls-4" x="206" y="475.68" width="477" height="2.67"/><text class="cls-5" transform="translate(120.23 484.13)">148c9b</text><rect class="cls-4" x="206" y="639.68" width="432" height="2.67"/><text class="cls-5" transform="translate(120.23 648.13)">148c9b</text><rect class="cls-4" x="206" y="867.68" width="218" height="2.67"/><text class="cls-5" transform="translate(120.23 876.13)">148c9b</text><rect class="cls-4" x="303" y="28.68" width="228" height="2.67"/><text class="cls-5" transform="translate(215.67 37.13)">107b84</text><rect class="cls-4" x="303" y="394.68" width="62" height="2.67"/><text class="cls-5" transform="translate(215.67 403.13)">107b84</text><rect class="cls-4" x="303" y="517.68" width="393" height="2.67"/><text class="cls-5" transform="translate(215.67 526.13)">107b84</text><rect class="cls-4" x="303" y="784.68" width="242" height="2.67"/><text class="cls-5" transform="translate(215.67 793.13)">107b84</text><rect class="cls-4" x="303" y="247.68" width="62" height="2.67"/><text class="cls-5" transform="translate(215.67 256.13)">107b84</text></svg>