<svg id="Layer_1" data-name="Layer 1" xmlns="http://www.w3.org/2000/svg" viewBox="0 0 90 160"><defs><style>.cls-1{fill:#0097a7;}.cls-2{fill:#00b8d4;}.cls-3{fill:#013d3d;opacity:0.4;}.cls-4{fill:#023831;opacity:0.04;}.cls-5{fill:#006064;opacity:0.5;}</style></defs><title>off_button</title><rect class="cls-1" width="90" height="160" rx="5" ry="5"/><path class="cls-2" d="M20,24H70a3,3,0,0,1,3,3V134a2,2,0,0,1-2,2H19a2,2,0,0,1-2-2V27A3,3,0,0,1,20,24Z" transform="translate(90 160) rotate(180)"/><path class="cls-3" d="M20,24H70a3,3,0,0,1,3,3V134a2,2,0,0,1-2,2H19a2,2,0,0,1-2-2V27A3,3,0,0,1,20,24Z" transform="translate(90 160) rotate(180)"/><rect class="cls-2" x="17" y="37" width="56" height="99" rx="3.11" ry="3.11" transform="translate(90 173) rotate(180)"/><path class="cls-4" d="M17,37H73a0,0,0,0,1,0,0V77.32A2.68,2.68,0,0,1,70.32,80H19.68A2.68,2.68,0,0,1,17,77.32V37A0,0,0,0,1,17,37Z" transform="translate(90 117) rotate(180)"/><rect class="cls-5" width="90" height="160" rx="5" ry="5"/></svg>