
<svg id="Layer_1" data-name="Layer 1" xmlns="http://www.w3.org/2000/svg" xmlns:xlink="http://www.w3.org/1999/xlink" viewBox="0 0 480 900">
    <defs>
    <style>.cls-1{fill:none;}.cls-2{fill:#00b8d4;}.cls-3{fill:#0097a7;}.cls-4{clip-path:url(#clip-path);}.cls-5{fill:#b3e5fc;}.cls-5,.cls-6{opacity:0.5;}.cls-6{fill:#006064;}</style>
    <clipPath id="clip-path">
        <path class="cls-1" d="M474.5,341c0,61.86-106,70.5-235.5,70.5S5.5,402.86,5.5,341s105-112,234.5-112S474.5,279.14,474.5,341Z"/>
    </clipPath>
    </defs>

    <title>Lamp</title>

    <!-- Lamp Body -->
    <rect class="cls-2" x="279.18" y="497.23" width="20" height="403.2" transform="translate(350.3 -55) rotate(27.12)"/>

    <rect class="cls-2" x="301.09" y="5.03" width="20" height="524.29" transform="translate(-60.81 94.41) rotate(-15.74)"/>

    <ellipse class="cls-3" cx="239.5" cy="54" rx="61" ry="51"/>

    <ellipse class="cls-3" cx="239.5" cy="824" rx="61" ry="51"/>
    <!-- Lamp Body -->

    <!-- Lamp head -->
    <path class="cls-2" d="M240,383.5c-129.51,0-234.5-16-234.5-42.5,0-61.86,73-301,234.5-301S474.5,279.14,474.5,341C474.5,353.5,369.51,383.5,240,383.5Z"/>

    <path class="cls-3" d="M30.25,385.12c42,27.32,122.09,38.38,210.25,38.38,95.37,0,186.8-24.36,227.47-62.18a58.6,58.6,0,0,0,6.45-23.89c-.56-14.31-4.35-36.08-11.5-61.48C431.81,231.52,344,199.5,240.5,199.5c-105.44,0-194.62,33.24-224.13,79-6.7,24.33-10.26,45.14-10.8,59C6.34,354.56,15.14,370.72,30.25,385.12Z"/>

    <path class="cls-2" d="M445,359.5c4.26-8.44,29.5-9.43,29.5-18.5,0-12.34-2.91-31.73-8.84-54.87h0C437.25,239.54,347.21,205.5,240.5,205.5c-109,0-200.67,35.54-226.93,83.68l-.31,1.26c-5.2,21.23-7.75,39-7.75,50.55,0,18,24.67,4.42,40.5,19.5,42,27.32,106.34,69,194.5,69C335.87,429.5,404.33,397.32,445,359.5Z"/>
    <!-- Lamp head -->


    <!-- Lamp Bottom -->
    <path class="cls-2" d="M430.85,897C394.73,838.71,323,799,240.5,799S86.27,838.71,50.15,897Z"/>

    <ellipse class="cls-3" cx="240" cy="341" rx="234.5" ry="112"/><g class="cls-4">

    <path class="cls-5" d="M363.11,310.26c0,67.71-54.89,87.24-122.61,87.24S117.89,378,117.89,310.26,172.79,140.5,240.5,140.5,363.11,242.55,363.11,310.26Z"/>
    </g>
    
    <circle class="cls-3" cx="381" cy="518.5" r="13"/>

    <!-- Lamp body color -->
    <path class="cls-6" d="M474.5,341c0-.69,0-1.41,0-2.14,0-.15,0-.31,0-.46,0-.73-.05-1.47-.09-2.24,0-.11,0-.23,0-.34q-.06-1.09-.14-2.23c0-.12,0-.23,0-.35q-.09-1.25-.21-2.56l0-.45q-.07-.78-.16-1.57v0q-.21-2-.47-4.07l0-.39q-.2-1.52-.42-3.09V321q-.18-1.26-.38-2.55l0-.11-.1-.64,0-.1q-.27-1.69-.57-3.44l0-.18q-.59-3.39-1.29-7l0-.18,0-.11,0-.1q-1.16-5.85-2.65-12.21l-.05-.22q-.92-3.92-2-8v0h0q-.67-2.63-1.4-5.32l-.07-.26C443.29,203.25,390.12,88.93,300.44,52,299.17,24.76,272.38,3,239.5,3c-33.05,0-59.95,22-61,49.41C90.27,89.47,37.58,201.52,16.38,278.47h0q-.63,2.27-1.22,4.51v0q-1,3.78-1.89,7.43h0v0l-.3,1.23,0,.08q-.27,1.12-.53,2.23l-.15.65q-.83,3.57-1.56,7l-.13.63-.39,1.85,0,.08q-.49,2.39-.93,4.7l-.12.63q-.6,3.2-1.1,6.23l-.1.6q-.49,3-.88,5.8l-.08.61q-.37,2.77-.65,5.34l-.06.6c-.09.84-.17,1.68-.24,2.49v0c0,.23,0,.46-.06.68v0q-.07.82-.13,1.61l0,.57c-.05.76-.1,1.52-.13,2.24v0c0,.72-.06,1.42-.08,2.1,0,.17,0,.35,0,.52,0,.68,0,1.35,0,2,0,61.86,105,112,234.5,112,39.53,0,76.76-4.68,109.43-12.93l20.29,72a12.87,12.87,0,0,0-1.23,9.95L240,773h-.46c-26,0-48.18,13.6-57,32.75C125.18,819.43,77.48,852.9,50.15,897h380.7c-27.69-44.68-76.28-78.45-134.64-91.78-6.34-13.38-19.25-24-35.42-29l126-246.08a13,13,0,0,0,2.76-21.39l-20.88-74.1C432.41,414.62,474.5,380.16,474.5,341Z"/>
    <!-- Lamp body color -->
</svg>