<svg id="Layer_1" data-name="Layer 1" xmlns="http://www.w3.org/2000/svg" viewBox="0 0 90 160"><defs><style>.cls-1{fill:#009688;}.cls-2{fill:#00bfa5;}.cls-3,.cls-4{fill:#023831;}.cls-3{opacity:0.4;}.cls-4{opacity:0.1;}</style></defs><title>on_button</title><rect class="cls-1" width="90" height="160" rx="5" ry="5"/><path class="cls-2" d="M20,24H70a3,3,0,0,1,3,3V134a2,2,0,0,1-2,2H19a2,2,0,0,1-2-2V27A3,3,0,0,1,20,24Z"/><path class="cls-3" d="M20,24H70a3,3,0,0,1,3,3V134a2,2,0,0,1-2,2H19a2,2,0,0,1-2-2V27A3,3,0,0,1,20,24Z"/><rect class="cls-2" x="17" y="24" width="56" height="99" rx="3.11" ry="3.11"/><path class="cls-4" d="M20.06,24H69.94A3.06,3.06,0,0,1,73,27.06V80a0,0,0,0,1,0,0H17a0,0,0,0,1,0,0V27.06A3.06,3.06,0,0,1,20.06,24Z"/></svg>