<svg id="Layer_1" data-name="Layer 1" xmlns="http://www.w3.org/2000/svg" viewBox="0 0 480 900"><defs><style>.cls-1{fill:#00bfa5;}.cls-2{fill:#118377;}.cls-3{fill:#009688;}.cls-4{fill:#18a38e;}.cls-5{fill:#169688;}.cls-6{fill:#f0ff99;}.cls-7{fill:#fffc80;}</style></defs><title>on_lamp</title><rect class="cls-1" x="279.18" y="498.73" width="20" height="403.2" transform="translate(350.98 -54.83) rotate(27.12)"/><rect class="cls-1" x="301.09" y="6.53" width="20" height="524.29" transform="translate(-61.22 94.46) rotate(-15.74)"/><ellipse class="cls-2" cx="239.5" cy="55.5" rx="61" ry="51"/><ellipse class="cls-3" cx="239.5" cy="825.5" rx="61" ry="51"/><path class="cls-4" d="M240,385C110.49,385,5.5,369,5.5,342.5c0-61.86,73-301,234.5-301s234.5,239.14,234.5,301C474.5,355,369.51,385,240,385Z"/><path class="cls-5" d="M469.38,303.47c.17.78.33,1.55.48,2.32C469.71,305,469.55,304.25,469.38,303.47Z"/><path class="cls-5" d="M470.36,308.23c.11.54.2,1.06.3,1.59C470.56,309.29,470.47,308.77,470.36,308.23Z"/><path class="cls-5" d="M240.5,207c106.7,0,196.74,34,225.16,80.62q-1.28-5-2.73-10.17C431.81,233,344,201,240.5,201c-105.44,0-194.62,33.24-224.12,79q-1.51,5.48-2.8,10.69C39.85,242.53,131.49,207,240.5,207Z"/><path class="cls-5" d="M471.77,315.91c.08.48.16.95.24,1.43C471.93,316.86,471.86,316.39,471.77,315.91Z"/><path class="cls-5" d="M468.19,298.06c.16.71.33,1.44.49,2.14C468.52,299.5,468.35,298.78,468.19,298.06Z"/><path class="cls-5" d="M466.11,289.42c.19.76.39,1.52.57,2.27C466.5,290.94,466.3,290.18,466.11,289.42Z"/><path class="cls-5" d="M467.18,293.75c.18.75.36,1.5.54,2.24C467.54,295.26,467.36,294.5,467.18,293.75Z"/><path class="cls-5" d="M471.1,312.13c.09.51.18,1,.27,1.52C471.28,313.14,471.2,312.64,471.1,312.13Z"/><path class="cls-5" d="M474,332.8c0,.32.05.63.08.95C474.08,333.43,474,333.12,474,332.8Z"/><path class="cls-5" d="M474.25,335.73q0,.44.05.87Q474.28,336.17,474.25,335.73Z"/><path class="cls-5" d="M474.42,339v0c0-.14,0-.29,0-.43C474.41,338.66,474.41,338.81,474.42,339Z"/><path class="cls-5" d="M472.37,319.56c.07.45.13.89.2,1.33C472.51,320.45,472.44,320,472.37,319.56Z"/><path class="cls-5" d="M472.9,323.08c.06.42.11.82.17,1.23C473,323.9,473,323.5,472.9,323.08Z"/><path class="cls-5" d="M473.34,326.46c0,.38.09.76.14,1.13C473.44,327.22,473.39,326.85,473.34,326.46Z"/><path class="cls-5" d="M473.72,329.7c0,.35.07.69.11,1C473.79,330.4,473.76,330.06,473.72,329.7Z"/><path class="cls-1" d="M430.85,898.5c-36.12-58.29-107.8-98-190.35-98s-154.23,39.71-190.35,98Z"/><ellipse class="cls-6" cx="240" cy="342.5" rx="234.5" ry="112"/><path class="cls-7" d="M132.47,242.95c-9.3,23.53-14.58,47.82-14.58,68.81,0,67.71,54.89,87.24,122.61,87.24s122.61-19.53,122.61-87.24c0-20.91-5.24-45.09-14.47-68.54C316.16,235.1,279.21,230.5,240,230.5,201.24,230.5,164.68,235,132.47,242.95Z"/><circle class="cls-3" cx="381" cy="520" r="13"/></svg>